<?xml version="1.0" encoding="utf-8"?>
<!-- Generator: Adobe Illustrator 27.5.0, SVG Export Plug-In . SVG Version: 6.00 Build 0)  -->
<svg version="1.1" id="Capa_1" xmlns="http://www.w3.org/2000/svg" xmlns:xlink="http://www.w3.org/1999/xlink" x="0px" y="0px"
	 viewBox="0 0 2122 2122" style="enable-background:new 0 0 2122 2122;" xml:space="preserve">
<path style="fill:#26385F;" d="M501.418,1227.999c28.85-2.22,55.938-9.458,80.578-20.752l0.021,0.026l0.241-0.14
	c1.125-0.517,2.237-1.052,3.351-1.585c9.133-3.718,35.232-10.301,72.393,13.965c0.582-64.076,2.339-129.491,5.462-198.466
	c5.113-112.945,93.177-204.076,205.022-213.643c72.249-16.214,146.602-7.106,211.541,23.097c5.623-24.202,9.05-36.983,9.05-36.983
	l0.007,0c3.992-15.732,30.219-29.387,71.904-39.758c-43.366-22.878-79.046-72.31-119.188-140.565
	c-7.097-12.067-13.641-23.58-19.662-34.671c-21.399-6.61-45.983-18.647-72.621-39.348c-1.542-1.223-3.072-2.459-4.64-3.647
	l-0.958-0.753c-1.699-1.385-3.452-2.613-5.233-3.762c-46.646-33.219-104.103-51.033-164.174-46.412
	c-96.576,7.431-173.619,70.731-203.908,156.295l-0.006-0.01l-0.031,0.112c-0.611,1.727-1.155,3.483-1.727,5.228
	c-6.981,19.339-36.484,84.985-115.764,86.127l-0.001,0.065c-2.509,0.116-5.013,0.191-7.533,0.385
	C310.705,743.175,213.905,862.44,229.334,999.183C244.763,1135.928,366.578,1238.372,501.418,1227.999z"/>
<path style="fill:#ED6B68;" d="M1451.019,850.411c-6.365,1.096-12.598,1.978-18.746,2.753
	c57.182,37.181,103.615,92.438,129.272,162.326c34.974,95.264,63.717,177.309,87.345,247.395
	c43.946-101.998-2.864-219.82-50.384-311.751c-2.68-5.185,5.153-9.769,7.835-4.58c49.354,95.478,95.963,215.671,50.246,321.253
	c-1.189,2.746-3.813,2.842-5.788,1.59c-7.677,16.378-17.746,32.125-30.788,46.952c-78.112,88.804-206.319,99.535-320.598,96.048
	c-0.257,2.801-2.548,4.225-4.776,4.228l-13.676,216.643c2.269-0.002,4.445,1.449,4.262,4.365l-0.006,0.106
	c154.873,4.34,319.468-19.245,442.014-113.954c-1.231-1.703-1.407-4.503,0.342-5.887c18.543-14.667,35.869-30.803,51.792-48.279
	c1.951-2.141,4.496-1.638,6.102-0.071c4.829-5.422,9.578-10.968,14.195-16.715c149.255-185.784,99.261-423.033-1.938-618.146
	c-16.298-31.421-40.161-48.362-65.969-54.303c-40.285-15.976-102.417-29.487-176.58-38.011
	c6.736,28.669,10.481,47.808,11.156,51.722C1569.698,813.651,1518.071,838.865,1451.019,850.411z"/>
<path style="fill:#ED6B68;" d="M1733.989,1524.314c-0.937,0.74-2.03,1.193-3.123,1.262c9.301,33.547,14.388,54.324,16.55,63.56
	l0.855-0.295c17.661-6.326,27.945-14.227,29.049-23.625c0,0,2.78-32.776,6.044-86.635
	C1768.097,1495.066,1751.613,1510.374,1733.989,1524.314z"/>
<path style="fill:#ED6B68;" d="M1085.906,831.859c2.584-1.49,5.019-0.179,6.134,1.846c26.467-14.383,56.152-23.6,87.753-26.303
	c47.104-10.571,95.093-10.382,140.808-0.597c-1.388-15.797-3.123-37.173-4.952-62.225c-2.292,0.768-3.979-0.325-4.826-1.975
	c-62.971,30.676-109.715,32.319-149.833,11.154c-41.684,10.371-67.912,24.026-71.904,39.758l-0.007,0c0,0-3.427,12.781-9.05,36.983
	c1.548,0.72,3.12,1.388,4.658,2.132L1085.906,831.859z"/>
<path d="M771.52,1841.259c-10.387-16.534-26.879-27.329-45.585-27.47c-31.531-0.24-57.333,29.755-58.023,67.161h233.97l1.79-147.157
	H762.846L771.52,1841.259z"/>
<path style="fill:#86B4E1;" d="M966.541,1121.635c0.931-33.531,1.958-67.089,3.692-100.589c1.363-26.353,6.803-52.311,16.863-76.741
	c19.322-46.921,53.848-86.083,97.589-111.673c-1.538-0.744-3.11-1.412-4.658-2.132c-64.939-30.203-139.292-39.311-211.541-23.097
	c-111.846,9.567-199.909,100.699-205.022,213.643c-3.123,68.974-4.879,134.39-5.462,198.466
	c-1.53,168.228,5.293,326.918,18.697,514.281h86.146h140.827h59.637l10.074-159.587c-1.249-23.124-2.427-46.252-3.44-69.389
	C964.353,1377.161,962.994,1249.369,966.541,1121.635z"/>
<path style="fill:#F5AA9F;" d="M1160.989,753.759c40.118,21.165,86.862,19.523,149.833-11.154c-1.179-2.296-0.691-5.672,2.481-6.783
	c34.265-11.996,66.471-29.164,95.649-50.757c4.703-3.48,9.222,4.398,4.58,7.834c-29.815,22.064-62.815,39.418-97.817,51.671
	l-0.066,0.009c1.829,25.052,3.564,46.427,4.952,62.225c39.669,8.491,77.577,24.19,111.672,46.359
	c6.148-0.775,12.381-1.657,18.746-2.753c67.053-11.547,118.68-36.76,115.312-56.317c-0.674-3.914-4.419-23.052-11.156-51.722
	c-15.826-67.353-48.203-187.429-96.325-287.192c16.642,1.901,34.006-1.299,49.557-10.445c38.081-22.395,50.796-71.423,28.4-109.503
	c-22.395-38.08-71.422-50.796-109.503-28.4c-14.121,8.305-24.733,20.281-31.381,33.994c-8.651,17.846-10.486,38.625-4.545,58.162
	c-30.452,7.653-102.986,12.579-127.799-103.209c0,0-123.398,190.246-281.593,177.977l0-0.005
	c4.12,30.693,18.424,64.742,40.155,104.771c6.021,11.091,12.565,22.604,19.662,34.671
	C1081.943,681.448,1117.623,730.881,1160.989,753.759z M1127.229,693.363c-21.871,0-39.601-17.731-39.601-39.601
	c0-21.871,17.729-39.602,39.601-39.602c21.871,0,39.601,17.73,39.601,39.602C1166.83,675.632,1149.1,693.363,1127.229,693.363z
	 M1275.312,592.676c4.363-3.856,10.799,2.542,6.415,6.416c-15.44,13.645-23.029,34.264-20.367,54.669
	c0.319,2.447-2.332,4.536-4.536,4.536c-2.679,0-4.22-2.108-4.537-4.536C1249.347,631.24,1258.313,607.698,1275.312,592.676z
	 M1445.707,343.116c11.423-8,27.061-6.693,38.767,0.008c12.569,7.194,20.731,20.015,26.826,32.755
	c2.511,5.247-5.316,9.845-7.834,4.58c-5.11-10.682-11.526-21.652-21.654-28.294c0.019,0.781-0.102,1.548-0.592,2.185
	c-8.552,11.098-11.023,25.712-6.381,38.956c0.814,2.323-0.927,4.965-3.169,5.58c-2.478,0.682-4.771-0.857-5.581-3.168
	c-5.339-15.234-2.571-33.142,7.296-45.948l1.207-1.203c-8.033-2.883-17.066-2.684-24.304,2.385
	C1445.488,354.311,1440.958,346.441,1445.707,343.116z M1318.588,494.747c25.419,0,46.026,20.607,46.026,46.026
	c0,25.42-20.607,46.026-46.026,46.026c-25.42,0-46.027-20.606-46.027-46.026C1272.561,515.354,1293.168,494.747,1318.588,494.747z
	 M1245.258,541.214c-5.359,7.683-15.653,7.712-22.94,2.79c-6.932-4.682-12.482-11.957-16.824-19.011
	c-4.453-7.233-7.726-15.231-9.698-23.489c-1.359-5.685,7.393-8.089,8.749-2.412c2.068,8.658,5.607,16.77,10.606,24.14
	c2.457,3.623,5.269,7.019,8.4,10.081c2.712,2.652,6.211,5.48,10.259,5.095c7.589-0.721,6.375-13.458,5.987-18.536
	c-0.712-9.339-3.718-18.403-8.431-26.47c-2.955-5.057,4.89-9.619,7.834-4.58c5.253,8.989,8.438,18.921,9.51,29.268
	C1249.481,525.53,1249.742,534.787,1245.258,541.214z M1169.119,455.32c22.182,12.862,50.255,10.36,69.583-6.598
	c4.375-3.84,10.813,2.557,6.416,6.415c-22.397,19.651-54.729,23.005-80.578,8.016
	C1159.484,460.223,1164.058,452.385,1169.119,455.32z M1162.701,527.048c3.638,20.533,6.776,41.232,10.962,61.659
	c1.77,8.636,5.133,15.609,13.32,19.641c6.934,3.416,15.02,4.32,22.612,5.082c5.765,0.579,5.805,9.656,0,9.074
	c-17.449-1.751-36.258-5.651-42.783-24.196c-3.696-10.504-4.622-22.35-6.558-33.278c-2.1-11.857-4.201-23.714-6.302-35.571
	C1152.938,523.741,1161.684,521.308,1162.701,527.048z M1098.533,590.639c2.711,2.652,6.21,5.479,10.258,5.095
	c7.588-0.721,6.375-13.459,5.988-18.537c-0.713-9.339-3.718-18.403-8.431-26.47c-2.955-5.057,4.891-9.619,7.834-4.58
	c5.252,8.989,8.437,18.921,9.51,29.268c0.771,7.438,1.032,16.696-3.451,23.123c-5.359,7.684-15.653,7.711-22.941,2.79
	c-6.933-4.681-12.483-11.958-16.824-19.01c-4.452-7.235-7.725-15.232-9.698-23.49c-1.358-5.685,7.393-8.088,8.75-2.412
	c2.068,8.657,5.607,16.77,10.607,24.141C1092.591,584.181,1095.401,587.578,1098.533,590.639z M1032.33,551.994
	c22.777-5.569,39.935-25.144,41.822-48.653c0.465-5.791,9.541-5.821,9.074,0c-2.205,27.466-21.595,50.829-48.483,57.403
	C1029.063,562.133,1026.661,553.38,1032.33,551.994z"/>
<path style="fill:#8A2121;" d="M1166.811,598.309c6.525,18.545,25.335,22.445,42.783,24.196c5.805,0.582,5.765-8.495,0-9.074
	c-7.592-0.762-15.677-1.666-22.612-5.082c-8.187-4.032-11.55-11.004-13.32-19.641c-4.187-20.428-7.325-41.126-10.962-61.659
	c-1.017-5.74-9.762-3.307-8.749,2.412c2.1,11.857,4.201,23.714,6.302,35.571C1162.189,575.959,1163.115,587.805,1166.811,598.309z"
	/>
<path style="fill:#8A2121;" d="M1164.54,463.154c25.849,14.989,58.181,11.635,80.578-8.016c4.397-3.859-2.042-10.255-6.416-6.415
	c-19.327,16.958-47.4,19.46-69.583,6.598C1164.058,452.385,1159.484,460.223,1164.54,463.154z"/>
<path style="fill:#8A2121;" d="M1034.743,560.744c26.888-6.574,46.278-29.937,48.483-57.403c0.467-5.821-8.609-5.791-9.074,0
	c-1.887,23.509-19.045,43.084-41.822,48.653C1026.661,553.38,1029.063,562.133,1034.743,560.744z"/>
<path style="fill:#8A2121;" d="M1231.366,493.403c4.713,8.066,7.719,17.131,8.431,26.47c0.388,5.078,1.601,17.815-5.987,18.536
	c-4.048,0.385-7.547-2.443-10.259-5.095c-3.131-3.062-5.942-6.458-8.4-10.081c-5-7.371-8.538-15.483-10.606-24.14
	c-1.355-5.677-10.107-3.273-8.749,2.412c1.972,8.258,5.245,16.256,9.698,23.489c4.341,7.054,9.892,14.329,16.824,19.011
	c7.288,4.921,17.582,4.893,22.94-2.79c4.484-6.427,4.223-15.685,3.452-23.123c-1.072-10.347-4.257-20.279-9.51-29.268
	C1236.255,483.784,1228.411,488.346,1231.366,493.403z"/>
<path style="fill:#8A2121;" d="M1079.527,556.417c-1.357-5.676-10.108-3.273-8.75,2.412c1.973,8.258,5.246,16.255,9.698,23.49
	c4.341,7.052,9.891,14.329,16.824,19.01c7.288,4.921,17.582,4.893,22.941-2.79c4.483-6.427,4.222-15.685,3.451-23.123
	c-1.072-10.347-4.258-20.279-9.51-29.268c-2.943-5.04-10.789-0.478-7.834,4.58c4.713,8.067,7.718,17.131,8.431,26.47
	c0.387,5.077,1.6,17.816-5.988,18.537c-4.048,0.384-7.547-2.443-10.258-5.095c-3.132-3.062-5.942-6.458-8.399-10.081
	C1085.134,573.187,1081.595,565.075,1079.527,556.417z"/>
<path style="fill:#8A2121;" d="M1256.823,658.298c2.204,0,4.855-2.09,4.536-4.536c-2.662-20.405,4.928-41.024,20.367-54.669
	c4.384-3.874-2.052-10.272-6.415-6.416c-17,15.022-25.965,38.564-23.026,61.086C1252.603,656.19,1254.145,658.298,1256.823,658.298z
	"/>
<ellipse transform="matrix(0.2298 -0.9732 0.9732 0.2298 489.3296 1699.8422)" style="fill:#EB806E;" cx="1318.587" cy="540.773" rx="46.026" ry="46.026"/>
<ellipse transform="matrix(0.9951 -0.0985 0.0985 0.9951 -58.9341 114.2557)" style="fill:#EB806E;" cx="1127.229" cy="653.762" rx="39.601" ry="39.601"/>
<path style="fill:#8A2121;" d="M1315.649,744.581l0.066-0.009c35.002-12.253,68.002-29.607,97.817-51.671
	c4.642-3.436,0.123-11.315-4.58-7.834c-29.178,21.593-61.385,38.761-95.649,50.757c-3.172,1.11-3.66,4.486-2.481,6.783
	C1311.67,744.255,1313.357,745.349,1315.649,744.581z"/>
<path style="fill:#86B4E1;" d="M1730.865,1525.576c-1.158,0.073-2.316-0.286-3.293-1.262l-0.342-0.53
	c-122.547,94.709-287.141,118.294-442.014,113.954c-0.253,3.998-0.505,7.997-0.757,11.995c-1.769,28.02-3.538,56.04-5.307,84.059
	c-0.155,2.453-1.97,4.536-4.537,4.536c-19.879,0-39.758,0-59.637,0l-0.055-0.011l-1.116,91.672
	c55.674,30.22,124.364,43.534,198.728,43.534c177.72,0,323.134-75.869,335.275-277.732l0.919-0.897c0,0-0.23-1.055-0.665-2.955
	c0.053-1.047,0.158-2.045,0.204-3.099l-0.855,0.295C1745.253,1579.9,1740.167,1559.123,1730.865,1525.576z"/>
<path d="M1214.924,1738.318c-2.882-0.032-4.328-2.274-4.328-4.526h-136.445l8.673,107.466
	c-10.387-16.534-26.879-27.329-45.585-27.47c-31.531-0.24-57.333,29.755-58.022,67.161h233.969l0.621-50.96L1214.924,1738.318z"/>
<path style="fill:#86B4E1;" d="M1210.597,1733.793c0.001-2.269,1.463-4.537,4.382-4.537c18.462,0,36.925,0,55.387,0
	c0.159-2.521,0.318-5.043,0.477-7.564c1.769-28.02,3.537-56.039,5.306-84.059c0.184-2.905,2.543-4.362,4.812-4.365l13.676-216.643
	c-2.268,0.003-4.445-1.449-4.261-4.365c0.828-13.117,1.656-26.234,2.484-39.35c3.608-57.154,7.216-114.309,10.823-171.463
	c2.264-35.859,4.528-71.718,6.792-107.577c0.366-5.809,9.441-5.831,9.074,0c-0.828,13.117-1.657,26.234-2.485,39.351
	c-3.608,57.154-7.215,114.308-10.823,171.463c-2.264,35.859-4.527,71.718-6.791,107.577l-0.037,0.137
	c114.279,3.486,242.486-7.244,320.598-96.048c13.041-14.827,23.111-30.574,30.788-46.952c-1.873-1.188-3.165-3.588-2.047-6.169
	l0.138-0.343c-23.628-70.086-52.372-152.131-87.345-247.395c-25.657-69.888-72.09-125.145-129.272-162.326
	c-34.095-22.169-72.003-37.868-111.672-46.359c-45.716-9.785-93.705-9.974-140.808,0.597c-31.6,2.703-61.285,11.919-87.753,26.303
	c1.074,1.949,0.926,4.558-1.555,5.989c-51.387,29.639-89.52,78.767-104.417,136.323c-7.601,29.366-7.491,59.784-8.625,89.906
	c-1.221,32.373-2.17,64.756-2.818,97.146c-1.238,61.836-1.362,123.692-0.362,185.532c2.08,128.557,9.126,256.961,18.28,385.192
	h81.61H1210.597z"/>
<path style="fill:#448BC6;" d="M974.262,1348.601c-1-61.84-0.876-123.696,0.362-185.532c0.648-32.39,1.598-64.772,2.818-97.146
	c1.135-30.122,1.025-60.54,8.625-89.906c14.898-57.556,53.03-106.684,104.417-136.323c2.48-1.431,2.628-4.041,1.555-5.989
	c-1.115-2.025-3.55-3.336-6.134-1.846l-1.221,0.772c-43.741,25.59-78.268,64.752-97.589,111.673
	c-10.059,24.43-15.499,50.389-16.863,76.741c-1.734,33.501-2.761,67.058-3.692,100.589c-3.547,127.734-2.188,255.526,3.403,383.182
	c1.013,23.137,2.191,46.265,3.44,69.389c2.875,53.224,6.29,106.419,10.085,159.587c0.414,5.791,9.491,5.836,9.073,0
	C983.389,1605.562,976.342,1477.157,974.262,1348.601z"/>
<path style="fill:#448BC6;" d="M1306.241,1304.684c3.608-57.155,7.216-114.308,10.823-171.463
	c0.828-13.117,1.657-26.234,2.485-39.351c0.368-5.831-8.707-5.809-9.074,0c-2.264,35.859-4.528,71.718-6.792,107.577
	c-3.608,57.154-7.216,114.308-10.823,171.463c-0.828,13.117-1.657,26.233-2.484,39.35c-0.184,2.916,1.993,4.367,4.261,4.365
	c2.228-0.002,4.519-1.426,4.776-4.228l0.037-0.137C1301.714,1376.401,1303.978,1340.542,1306.241,1304.684z"/>
<path style="fill:#448BC6;" d="M1276.15,1637.633c-1.769,28.02-3.537,56.039-5.306,84.059c-0.159,2.521-0.318,5.042-0.477,7.564
	c-18.462,0-36.925,0-55.387,0c-2.919,0-4.381,2.268-4.382,4.537c-0.001,2.252,1.445,4.494,4.328,4.526l0.055,0.011
	c19.879,0,39.758,0,59.637,0c2.566,0,4.382-2.084,4.537-4.536c1.769-28.019,3.538-56.039,5.307-84.059
	c0.252-3.998,0.504-7.996,0.757-11.995l0.006-0.106c0.184-2.916-1.993-4.367-4.262-4.365
	C1278.693,1633.271,1276.333,1634.728,1276.15,1637.633z"/>
<path style="fill:#26385F;" d="M1263.578,295.78c24.813,115.788,97.348,110.862,127.799,103.209
	c-5.941-19.536-4.106-40.315,4.545-58.162c-73.168-128.386-163.511-124.114-304.383-41.263
	c-93.384,54.921-122.396,114.794-109.555,174.188l0,0.005C1140.18,486.026,1263.578,295.78,1263.578,295.78z"/>
<path style="fill:#8A2121;" d="M1450.286,350.951c7.238-5.069,16.271-5.268,24.304-2.385l-1.207,1.203
	c-9.867,12.806-12.635,30.714-7.296,45.948c0.81,2.311,3.103,3.85,5.581,3.168c2.242-0.616,3.983-3.257,3.169-5.58
	c-4.642-13.244-2.17-27.858,6.381-38.956c0.49-0.637,0.612-1.404,0.592-2.185c10.129,6.642,16.544,17.613,21.654,28.294
	c2.519,5.266,10.345,0.667,7.834-4.58c-6.095-12.74-14.257-25.56-26.826-32.755c-11.706-6.701-27.344-8.008-38.767-0.008
	C1440.958,346.441,1445.488,354.311,1450.286,350.951z"/>
<path style="fill:#CE292F;" d="M1650.799,1269.398c1.975,1.252,4.599,1.156,5.788-1.59c45.717-105.582-0.893-225.775-50.246-321.253
	c-2.682-5.189-10.515-0.605-7.835,4.58c47.521,91.931,94.331,209.753,50.384,311.751l-0.138,0.343
	C1647.635,1265.81,1648.926,1268.21,1650.799,1269.398z"/>
<path style="fill:#CE292F;" d="M1779.365,1469.619c-15.923,17.476-33.249,33.613-51.792,48.279
	c-1.749,1.384-1.573,4.184-0.342,5.887l0.342,0.53c0.977,0.976,2.135,1.336,3.293,1.262c1.094-0.069,2.186-0.522,3.123-1.262
	c17.624-13.94,34.108-29.249,49.375-45.733c0.796-0.859,1.629-1.681,2.418-2.546c1.984-2.177,1.325-4.888-0.314-6.488
	C1783.861,1467.98,1781.316,1467.477,1779.365,1469.619z"/>
</svg>
